<svg xmlns="http://www.w3.org/2000/svg" viewBox="-20 -10 360 350" width="360" height="350" role="img">
<defs>
<pattern id="cases" width="80" height="80" patternUnits="userSpaceOnUse">
<rect width="80" height="80" fill="#F0D9B5"/><rect width="40" height="40" fill="#B58863"/><rect x="40" y="40" width="40" height="40" fill="#B58863"/>
</pattern>
<marker id="pointe" viewBox="0 0 10 10" refX="6" refY="5" markerWidth="4" markerHeight="4" orient="auto-start-reverse"><path d="M0 0L10 5L0 10z" fill="#B05E17"/></marker>
<symbol id="wN" viewBox="0 0 45 45"><g fill="none" fill-rule="evenodd" stroke="#000" stroke-linecap="round" stroke-linejoin="round" stroke-width="1.5"><path fill="#fff" d="M22 10c10.5 1 16.5 8 16 29H15c0-9 10-6.5 8-21"/><path fill="#fff" d="M24 18c.38 2.91-5.55 7.37-8 9-3 2-2.82 4.34-5 4-1.042-.94 1.41-3.04 0-3-1 0 .19 1.23-1 2-1 0-4.003 1-4-4 0-2 6-12 6-12s1.89-1.9 2-3.5c-.73-.994-.5-2-.5-3 1-1 3 2.5 3 2.5h2s.78-1.992 2.5-3c1 0 1 3 1 3"/><path fill="#000" d="M9.5 25.5a.5.5 0 1 1-1 0 .5.5 0 1 1 1 0zm5.433-9.75a.5 1.5 30 1 1-.866-.5.5 1.5 30 1 1 .866.5z"/></g></symbol>
</defs>
<rect x="0" y="0" width="320" height="320" fill="url(#cases)" stroke="#1a1a1a" stroke-width="2"/>
<rect x="40" y="200" width="40" height="40" fill="#FFD54F" opacity="0.5"/><rect x="40" y="120" width="40" height="40" fill="#FFD54F" opacity="0.5"/><rect x="80" y="240" width="40" height="40" fill="#FFD54F" opacity="0.5"/><rect x="80" y="80" width="40" height="40" fill="#FFD54F" opacity="0.5"/><rect x="160" y="240" width="40" height="40" fill="#FFD54F" opacity="0.5"/><rect x="160" y="80" width="40" height="40" fill="#FFD54F" opacity="0.5"/><rect x="200" y="200" width="40" height="40" fill="#FFD54F" opacity="0.5"/><rect x="200" y="120" width="40" height="40" fill="#FFD54F" opacity="0.5"/>
<g><use href="#wN" x="120" y="160" width="40" height="40"/></g>

<g font-family="Georgia,serif" font-size="13" fill="#5a4632" text-anchor="middle"><text x="20" y="340">a</text><text x="60" y="340">b</text><text x="100" y="340">c</text><text x="140" y="340">d</text><text x="180" y="340">e</text><text x="220" y="340">f</text><text x="260" y="340">g</text><text x="300" y="340">h</text><text x="-10" y="305">1</text><text x="-10" y="265">2</text><text x="-10" y="225">3</text><text x="-10" y="185">4</text><text x="-10" y="145">5</text><text x="-10" y="105">6</text><text x="-10" y="65">7</text><text x="-10" y="25">8</text></g>
</svg>