<svg xmlns="http://www.w3.org/2000/svg" viewBox="-20 -10 360 350" width="360" height="350" role="img">
<defs>
<pattern id="cases" width="80" height="80" patternUnits="userSpaceOnUse">
<rect width="80" height="80" fill="#F0D9B5"/><rect width="40" height="40" fill="#B58863"/><rect x="40" y="40" width="40" height="40" fill="#B58863"/>
</pattern>
<marker id="pointe" viewBox="0 0 10 10" refX="6" refY="5" markerWidth="4" markerHeight="4" orient="auto-start-reverse"><path d="M0 0L10 5L0 10z" fill="#B05E17"/></marker>
<symbol id="wQ" viewBox="0 0 45 45"><g fill="#fff" fill-rule="evenodd" stroke="#000" stroke-linecap="round" stroke-linejoin="round" stroke-width="1.5"><path d="M8 12a2 2 0 1 1-4 0 2 2 0 1 1 4 0m16.5-4.5a2 2 0 1 1-4 0 2 2 0 1 1 4 0M41 12a2 2 0 1 1-4 0 2 2 0 1 1 4 0M16 8.5a2 2 0 1 1-4 0 2 2 0 1 1 4 0M33 9a2 2 0 1 1-4 0 2 2 0 1 1 4 0"/><path stroke-linecap="butt" d="M9 26c8.5-1.5 21-1.5 27 0l2-12-7 11V11l-5.5 13.5-3-15-3 15-5.5-14V25L7 14z"/><path stroke-linecap="butt" d="M9 26c0 2 1.5 2 2.5 4 1 1.5 1 1 .5 3.5-1.5 1-1.5 2.5-1.5 2.5-1.5 1.5.5 2.5.5 2.5 6.5 1 16.5 1 23 0 0 0 1.5-1 0-2.5 0 0 .5-1.5-1-2.5-.5-2.5-.5-2 .5-3.5 1-2 2.5-2 2.5-4-8.5-1.5-18.5-1.5-27 0z"/><path fill="none" d="M11.5 30c3.5-1 18.5-1 22 0M12 33.5c6-1 15-1 21 0"/></g></symbol>
</defs>
<rect x="0" y="0" width="320" height="320" fill="url(#cases)" stroke="#1a1a1a" stroke-width="2"/>
<rect x="120" y="280" width="40" height="40" fill="#FFD54F" opacity="0.5"/><rect x="120" y="240" width="40" height="40" fill="#FFD54F" opacity="0.5"/><rect x="120" y="200" width="40" height="40" fill="#FFD54F" opacity="0.5"/><rect x="120" y="120" width="40" height="40" fill="#FFD54F" opacity="0.5"/><rect x="120" y="80" width="40" height="40" fill="#FFD54F" opacity="0.5"/><rect x="120" y="40" width="40" height="40" fill="#FFD54F" opacity="0.5"/><rect x="120" y="0" width="40" height="40" fill="#FFD54F" opacity="0.5"/><rect x="0" y="160" width="40" height="40" fill="#FFD54F" opacity="0.5"/><rect x="40" y="160" width="40" height="40" fill="#FFD54F" opacity="0.5"/><rect x="80" y="160" width="40" height="40" fill="#FFD54F" opacity="0.5"/><rect x="160" y="160" width="40" height="40" fill="#FFD54F" opacity="0.5"/><rect x="200" y="160" width="40" height="40" fill="#FFD54F" opacity="0.5"/><rect x="240" y="160" width="40" height="40" fill="#FFD54F" opacity="0.5"/><rect x="280" y="160" width="40" height="40" fill="#FFD54F" opacity="0.5"/><rect x="0" y="280" width="40" height="40" fill="#FFD54F" opacity="0.5"/><rect x="40" y="240" width="40" height="40" fill="#FFD54F" opacity="0.5"/><rect x="80" y="200" width="40" height="40" fill="#FFD54F" opacity="0.5"/><rect x="160" y="120" width="40" height="40" fill="#FFD54F" opacity="0.5"/><rect x="200" y="80" width="40" height="40" fill="#FFD54F" opacity="0.5"/><rect x="240" y="40" width="40" height="40" fill="#FFD54F" opacity="0.5"/><rect x="280" y="0" width="40" height="40" fill="#FFD54F" opacity="0.5"/><rect x="0" y="40" width="40" height="40" fill="#FFD54F" opacity="0.5"/><rect x="40" y="80" width="40" height="40" fill="#FFD54F" opacity="0.5"/><rect x="80" y="120" width="40" height="40" fill="#FFD54F" opacity="0.5"/><rect x="160" y="200" width="40" height="40" fill="#FFD54F" opacity="0.5"/><rect x="200" y="240" width="40" height="40" fill="#FFD54F" opacity="0.5"/><rect x="240" y="280" width="40" height="40" fill="#FFD54F" opacity="0.5"/>
<g><use href="#wQ" x="120" y="160" width="40" height="40"/></g>

<g font-family="Georgia,serif" font-size="13" fill="#5a4632" text-anchor="middle"><text x="20" y="340">a</text><text x="60" y="340">b</text><text x="100" y="340">c</text><text x="140" y="340">d</text><text x="180" y="340">e</text><text x="220" y="340">f</text><text x="260" y="340">g</text><text x="300" y="340">h</text><text x="-10" y="305">1</text><text x="-10" y="265">2</text><text x="-10" y="225">3</text><text x="-10" y="185">4</text><text x="-10" y="145">5</text><text x="-10" y="105">6</text><text x="-10" y="65">7</text><text x="-10" y="25">8</text></g>
</svg>