<svg xmlns="http://www.w3.org/2000/svg" viewBox="-20 -10 360 350" width="360" height="350" role="img">
<defs>
<pattern id="cases" width="80" height="80" patternUnits="userSpaceOnUse">
<rect width="80" height="80" fill="#F0D9B5"/><rect width="40" height="40" fill="#B58863"/><rect x="40" y="40" width="40" height="40" fill="#B58863"/>
</pattern>
<marker id="pointe" viewBox="0 0 10 10" refX="6" refY="5" markerWidth="4" markerHeight="4" orient="auto-start-reverse"><path d="M0 0L10 5L0 10z" fill="#B05E17"/></marker>
<symbol id="wB" viewBox="0 0 45 45"><g fill="none" fill-rule="evenodd" stroke="#000" stroke-linecap="round" stroke-linejoin="round" stroke-width="1.5"><g fill="#fff" stroke-linecap="butt"><path d="M9 36c3.39-.97 10.11.43 13.5-2 3.39 2.43 10.11 1.03 13.5 2 0 0 1.65.54 3 2-.68.97-1.65.99-3 .5-3.39-.97-10.11.46-13.5-1-3.39 1.46-10.11.03-13.5 1-1.35.49-2.32.47-3-.5 1.35-1.94 3-2 3-2z"/><path d="M15 32c2.5 2.5 12.5 2.5 15 0 .5-1.5 0-2 0-2 0-2.5-2.5-4-2.5-4 5.5-1.5 6-11.5-5-15.5-11 4-10.5 14-5 15.5 0 0-2.5 1.5-2.5 4 0 0-.5.5 0 2z"/><path d="M25 8a2.5 2.5 0 1 1-5 0 2.5 2.5 0 1 1 5 0z"/></g><path stroke-linejoin="miter" d="M17.5 26h10M15 30h15m-7.5-14.5v5M20 18h5"/></g></symbol>
</defs>
<rect x="0" y="0" width="320" height="320" fill="url(#cases)" stroke="#1a1a1a" stroke-width="2"/>
<rect x="0" y="280" width="40" height="40" fill="#FFD54F" opacity="0.5"/><rect x="40" y="240" width="40" height="40" fill="#FFD54F" opacity="0.5"/><rect x="80" y="200" width="40" height="40" fill="#FFD54F" opacity="0.5"/><rect x="160" y="120" width="40" height="40" fill="#FFD54F" opacity="0.5"/><rect x="200" y="80" width="40" height="40" fill="#FFD54F" opacity="0.5"/><rect x="240" y="40" width="40" height="40" fill="#FFD54F" opacity="0.5"/><rect x="280" y="0" width="40" height="40" fill="#FFD54F" opacity="0.5"/><rect x="0" y="40" width="40" height="40" fill="#FFD54F" opacity="0.5"/><rect x="40" y="80" width="40" height="40" fill="#FFD54F" opacity="0.5"/><rect x="80" y="120" width="40" height="40" fill="#FFD54F" opacity="0.5"/><rect x="160" y="200" width="40" height="40" fill="#FFD54F" opacity="0.5"/><rect x="200" y="240" width="40" height="40" fill="#FFD54F" opacity="0.5"/><rect x="240" y="280" width="40" height="40" fill="#FFD54F" opacity="0.5"/>
<g><use href="#wB" x="120" y="160" width="40" height="40"/></g>

<g font-family="Georgia,serif" font-size="13" fill="#5a4632" text-anchor="middle"><text x="20" y="340">a</text><text x="60" y="340">b</text><text x="100" y="340">c</text><text x="140" y="340">d</text><text x="180" y="340">e</text><text x="220" y="340">f</text><text x="260" y="340">g</text><text x="300" y="340">h</text><text x="-10" y="305">1</text><text x="-10" y="265">2</text><text x="-10" y="225">3</text><text x="-10" y="185">4</text><text x="-10" y="145">5</text><text x="-10" y="105">6</text><text x="-10" y="65">7</text><text x="-10" y="25">8</text></g>
</svg>